<?xml version="1.0" encoding="utf-8"?>
<!-- Generator: Adobe Illustrator 23.0.2, SVG Export Plug-In . SVG Version: 6.00 Build 0)  -->
<svg version="1.1" id="Layer_2" xmlns="http://www.w3.org/2000/svg" xmlns:xlink="http://www.w3.org/1999/xlink" x="0px" y="0px"
	 viewBox="0 0 512 512" style="enable-background:new 0 0 512 512;" xml:space="preserve">
<style type="text/css">
	.st0{fill:#FFFFFF;}
</style>
<g>
	<g>
		<path class="st0" d="M256,512c-68.38,0-132.67-26.63-181.03-74.98S0,324.38,0,256S26.63,123.34,74.98,74.98
			C123.34,26.62,187.63,0,256,0s132.67,26.63,181.02,74.98C485.37,123.34,512,187.62,512,256c0,68.38-26.62,132.66-74.98,181.02
			S324.38,512,256,512z M256,25.79c-61.49,0-119.3,23.95-162.79,67.42C49.73,136.7,25.79,194.5,25.79,256s23.95,119.3,67.42,162.78
			C136.7,462.26,194.51,486.2,256,486.2s119.3-23.95,162.78-67.42c43.47-43.48,67.42-101.29,67.42-162.78s-23.95-119.3-67.42-162.78
			C375.3,49.74,317.5,25.79,256,25.79z"/>
	</g>
	<g>
		<path class="st0" d="M166.7,100.48c0,0-47.63-0.04-52.41-0.04c-4.78,0-9.52,4.8-9.52,9.55s0,127.85,0,127.85
			c0,4.78,4.75,9.55,9.52,9.55l60.89,0.04c31.01,0.04,37.54-55.37,37.54-55.37l0.03-31.75C212.75,160.31,209.69,100.41,166.7,100.48
			z M160.52,217.51c-16.21,0-16.21,0-16.21,0V132.9h16.21c14.12,0,14.21,33.34,14.21,33.34v17.23
			C174.73,183.47,176.73,217.51,160.52,217.51z"/>
	</g>
	<g>
		<path class="st0" d="M232.08,100.41h67.61c4.78,0,9.57,4.77,9.57,9.55l-0.02,12.35c0,4.75-4.8,9.55-9.55,9.55l-37.62,0.02v23.27
			h22.88c4.76,0,9.6,4.9,9.6,9.67l-0.01,12.2c0,4.76-4.84,9.57-9.59,9.57h-22.88v29.87h37.62c4.76,0,9.55,4.86,9.55,9.61v11.79
			c0,4.78-4.8,9.55-9.55,9.55h-67.61c-4.78,0-9.54-4.78-9.54-9.55l-0.02-127.91C222.51,105.18,227.31,100.41,232.08,100.41z"/>
	</g>
	<g>
		<path class="st0" d="M330.9,100.41h67.61c4.78,0,9.57,4.77,9.57,9.55l-0.02,12.35c0,4.75-4.8,9.55-9.55,9.55l-37.62,0.02v23.27
			h22.88c4.76,0,9.6,4.9,9.6,9.67l-0.01,12.2c0,4.76-4.84,9.57-9.59,9.57h-22.88v29.87h37.62c4.76,0,9.55,4.86,9.55,9.61v11.79
			c0,4.78-4.8,9.55-9.55,9.55H330.9c-4.78,0-9.54-4.78-9.54-9.55l-0.02-127.91C321.33,105.18,326.12,100.41,330.9,100.41z"/>
	</g>
	<g>
		<path class="st0" d="M159.75,267.21l19.28,0.03c4.77,0,9.53,4.83,9.53,9.55v126.29c0,4.74-4.77,9.54-9.53,9.54h-64.37
			c-4.65,0-9.43-4.79-9.43-9.51l0.03-36.42c0-4.85,4.79-9.63,9.52-9.63l16.3,0.02c4.83,0,9.52,4.84,9.52,9.53l0.04,9.92
			c0,0,0,4.81,4.78,4.81s4.78-4.81,4.78-4.81l0.06-99.74C150.27,271.99,155,267.21,159.75,267.21z"/>
	</g>
	<g>
		<path class="st0" d="M284.41,276.76c0,0-2.88-9.51-9.56-9.51c-4.77,0-36.42-0.03-36.42-0.03c-7.42,0-9.57,9.57-9.57,9.57
			l-32.66,131.03c0,2.36,2.32,4.71,4.78,4.71c2.46,0,20.45,0.02,27.62,0.02c8.01,0,9.47-9.51,9.47-9.51l7.12-26.83l27.26,0.01
			l5.58,26.81c0,0,1,9.58,8.06,9.58c6.01,0,27.8,0.02,30.57,0.02c2.78,0,4.78-2.24,4.78-4.81L284.41,276.76z M250.76,344.38
			l7.13-33.32l7.01,33.33L250.76,344.38z"/>
	</g>
	<g>
		<path class="st0" d="M385.42,401.38c0-5.67,4.3-9.93,9.79-9.93c5.42,0,9.68,4.26,9.68,9.93c0,5.76-4.26,9.98-9.68,9.98
			C389.71,411.36,385.42,407.13,385.42,401.38z M395.22,413.34c6.51,0,12.07-5.03,12.07-11.96c0-6.88-5.55-11.91-12.07-11.91
			c-6.6,0-12.18,5.03-12.18,11.91C383.04,408.3,388.62,413.34,395.22,413.34z M392.68,402.32h2.41l3.65,5.98h2.34l-3.93-6.07
			c2.03-0.25,3.58-1.33,3.58-3.81c0-2.71-1.61-3.92-4.88-3.92h-5.26v13.8h2.09L392.68,402.32L392.68,402.32z M392.68,400.56v-4.29
			h2.86c1.46,0,3.01,0.32,3.01,2.04c0,2.13-1.59,2.24-3.35,2.24L392.68,400.56L392.68,400.56z"/>
	</g>
	<g>
		<path class="st0" d="M302.71,267.21h30.5c4.78,0,8.56,9.52,8.56,9.52l11.87,25.78l11.06-25.77c0,0,3.96-9.53,7.59-9.53h32.42
			c0,0,5.04,0.11,5.04,4.74L372.33,350l-0.04,53.12c0,4.68-4.81,9.49-9.52,9.49h-20.3c-4.8,0-9.56-4.83-9.56-9.51l0.05-53.08
			l-36.84-78.01C296.11,267.21,302.71,267.21,302.71,267.21z"/>
	</g>
</g>
</svg>
